<?xml version="1.0" standalone="no"?>
<!DOCTYPE svg PUBLIC "-//W3C//DTD SVG 20010904//EN"
 "http://www.w3.org/TR/2001/REC-SVG-20010904/DTD/svg10.dtd">
<svg version="1.0" xmlns="http://www.w3.org/2000/svg"
 width="320.000000pt" height="320.000000pt" viewBox="0 0 320.000000 320.000000"
 preserveAspectRatio="xMidYMid meet">
<metadata>
Created by potrace 1.14, written by Peter Selinger 2001-2017
</metadata>
<g transform="translate(0.000000,320.000000) scale(0.100000,-0.100000)"
fill="#000000" stroke="none">
<path d="M3083 2788 c-6 -7 -13 -25 -17 -40 -3 -16 -13 -28 -20 -28 -8 0 -28
-22 -46 -49 -30 -48 -32 -49 -61 -39 -40 14 -46 5 -25 -38 21 -45 8 -68 -30
-53 -50 18 -55 13 -35 -34 16 -37 17 -46 5 -62 -8 -11 -12 -25 -9 -32 4 -11
-24 -57 -72 -122 -2 -2 -19 0 -38 6 -40 13 -41 10 -19 -42 19 -46 9 -59 -35
-44 -17 6 -34 9 -37 6 -3 -2 3 -23 12 -46 12 -30 13 -45 6 -54 -6 -7 -11 -22
-10 -32 1 -27 -324 -577 -383 -648 -4 -5 -17 -4 -29 3 -30 16 -34 8 -16 -35
l16 -37 -32 7 c-30 7 -30 6 -24 -20 5 -21 2 -31 -14 -42 -12 -8 -20 -22 -18
-31 2 -9 -9 -30 -25 -46 -23 -26 -30 -29 -45 -18 -9 7 -29 20 -44 30 -27 17
-79 117 -94 179 -4 15 -13 35 -21 44 -12 14 -9 19 21 43 19 14 41 26 48 26 8
0 31 -16 52 -35 42 -38 66 -43 90 -20 15 16 9 51 -13 80 -5 5 -11 46 -15 91
-6 79 -6 81 18 92 39 18 106 82 126 122 24 48 50 148 50 196 l0 39 -37 -65
c-70 -118 -137 -170 -222 -170 -18 0 -22 4 -16 18 15 38 45 167 45 194 0 16
11 44 24 61 13 18 38 68 56 112 47 115 85 187 112 212 54 51 167 69 229 37 46
-23 49 -6 5 32 -58 50 -124 69 -194 55 -126 -25 -170 -68 -254 -249 -23 -48
-54 -104 -70 -124 -33 -43 -106 -81 -145 -76 -25 3 -28 7 -31 45 -2 32 -9 47
-28 60 -13 10 -37 28 -52 41 -15 12 -35 25 -44 28 -24 7 -23 38 1 55 19 13 19
18 6 129 -8 63 -14 123 -15 133 0 38 -17 11 -65 -106 -58 -144 -59 -148 -38
-164 18 -14 20 -13 -97 -55 -61 -22 -65 -26 -75 -65 -13 -55 -17 -57 -57 -38
-83 43 -121 104 -137 221 -19 134 -50 233 -87 274 -84 93 -254 118 -336 50
l-23 -20 47 7 c73 9 135 -13 189 -67 51 -51 56 -67 80 -270 12 -109 32 -161
91 -239 25 -34 43 -69 45 -90 l4 -34 -25 17 c-36 23 -38 21 -20 -24 16 -39 16
-42 -2 -55 -20 -14 -64 -29 -70 -22 -2 1 -4 49 -5 106 -1 56 -5 99 -9 94 -4
-4 -18 -48 -30 -96 l-23 -88 -38 37 c-44 43 -64 95 -81 211 -7 45 -15 83 -19
83 -14 0 -33 -114 -34 -196 0 -75 3 -87 41 -164 47 -95 46 -109 -12 -149 -18
-13 -34 -27 -34 -32 0 -4 -32 -56 -72 -114 -64 -95 -71 -109 -59 -127 11 -18
10 -19 -7 -14 -16 6 -26 -4 -51 -48 -18 -31 -47 -64 -67 -76 -19 -12 -46 -37
-60 -56 -21 -27 -25 -42 -22 -76 3 -29 -1 -55 -14 -80 -22 -45 -23 -74 -3 -82
24 -9 17 -24 -12 -28 -21 -2 -31 -11 -38 -33 -5 -17 -22 -46 -36 -65 -32 -42
-72 -120 -66 -127 3 -2 25 10 49 27 l43 31 13 -103 c17 -127 18 -170 8 -228
l-9 -45 26 24 c25 23 27 23 33 5 18 -50 46 -110 61 -126 15 -17 54 -18 654
-18 500 0 638 3 642 13 4 10 6 10 6 0 1 -10 42 -13 170 -13 143 0 172 3 186
16 9 9 14 23 11 31 -4 8 3 26 14 40 11 14 20 33 20 42 1 9 10 -11 21 -44 12
-33 25 -66 31 -73 7 -8 40 -12 98 -12 79 0 88 2 93 20 7 26 27 26 27 0 0 -19
7 -20 230 -20 141 0 230 4 230 10 0 5 -15 38 -34 72 -41 75 -96 234 -96 278 0
17 -11 57 -25 90 -14 33 -25 70 -25 83 0 29 -26 53 -110 102 -36 20 -81 50
-100 65 -19 15 -55 38 -79 50 l-43 23 -47 -53 -46 -52 -14 26 c-15 27 -51 43
-71 31 -6 -4 -15 -17 -20 -29 -8 -20 -9 -20 -9 -1 -1 28 43 101 58 97 10 -2
11 8 6 38 -7 40 -6 41 19 34 29 -7 32 2 15 40 -10 20 -7 33 14 75 54 109 353
610 363 611 6 0 18 10 26 21 12 18 17 20 35 10 46 -24 54 -15 32 36 -23 55
-15 71 30 55 36 -13 37 -8 16 46 -15 38 -15 41 10 87 14 26 25 54 25 61 0 8 9
14 19 14 11 0 23 9 26 20 7 22 21 25 59 10 31 -11 32 -4 11 47 -22 53 -14 65
36 57 l41 -7 -21 42 -21 41 25 51 c15 28 24 57 21 65 -6 15 46 74 64 74 5 0
10 18 10 40 l0 40 -54 0 c-31 0 -58 -5 -63 -12z m-1802 -728 c11 -6 19 -21 19
-35 0 -38 16 -38 49 2 17 20 33 34 37 30 10 -10 -17 -67 -37 -77 -32 -17 -43
-11 -72 40 -29 52 -29 57 4 40z m706 -84 c-21 -46 -29 -54 -46 -49 -17 4 -21
13 -21 42 1 32 6 39 43 62 52 32 58 19 24 -55z m-583 -32 c9 -3 16 -15 16 -25
0 -22 -1 -23 -34 -7 -20 9 -23 14 -15 25 13 15 12 15 33 7z m18 -99 c3 -14 1
-25 -3 -25 -5 0 -9 11 -9 25 0 14 2 25 4 25 2 0 6 -11 8 -25z m173 -177 c7 -7
-1 -9 -25 -4 -19 3 -39 11 -45 17 -7 8 0 9 25 4 19 -4 40 -12 45 -17z m227
-24 c5 -5 -87 -104 -97 -104 -13 0 -3 64 13 85 16 23 69 35 84 19z m-307 -74
c3 -5 2 -10 -4 -10 -5 0 -13 5 -16 10 -3 6 -2 10 4 10 5 0 13 -4 16 -10z m341
-47 c-3 -3 -1 -13 3 -22 6 -11 1 -26 -20 -50 l-28 -34 -20 24 c-11 13 -20 27
-21 31 0 5 17 26 37 49 31 34 38 38 46 24 5 -9 6 -19 3 -22z m-210 -30 c-7 -7
-26 7 -26 19 0 6 6 6 15 -2 9 -7 13 -15 11 -17z m-41 -53 c3 -5 1 -10 -4 -10
-6 0 -11 5 -11 10 0 6 2 10 4 10 3 0 8 -4 11 -10z m45 -10 c0 -5 -2 -10 -4
-10 -3 0 -8 5 -11 10 -3 6 -1 10 4 10 6 0 11 -4 11 -10z m91 -83 c-1 -12 -15
-9 -19 4 -3 6 1 10 8 8 6 -3 11 -8 11 -12z m133 -216 c17 -17 36 -31 43 -31 8
0 13 -13 13 -35 0 -40 22 -100 47 -127 14 -16 12 -23 -26 -87 -22 -38 -53 -84
-68 -101 -24 -29 -28 -31 -39 -16 -12 17 -41 207 -36 236 8 45 8 76 2 85 -15
20 -19 76 -8 100 13 28 27 24 72 -24z m-201 -241 c3 -11 1 -20 -4 -20 -5 0 -9
2 -9 4 0 2 -3 11 -6 20 -3 9 -2 16 4 16 5 0 12 -9 15 -20z m411 -61 c-4 -24
-3 -39 4 -39 12 0 22 24 22 55 0 31 16 40 29 16 9 -17 14 -121 5 -121 -1 0
-19 9 -39 21 -27 16 -39 19 -49 10 -23 -19 -25 -47 -5 -91 21 -47 23 -59 10
-79 -8 -12 -16 -10 -50 12 -31 21 -41 34 -41 55 0 30 100 213 112 206 4 -3 5
-23 2 -45z m-487 -23 c4 -7 35 -27 68 -44 33 -17 78 -49 100 -71 21 -23 44
-41 51 -41 6 0 17 -7 24 -16 8 -8 27 -21 44 -29 17 -7 40 -20 51 -28 19 -15
19 -15 -6 -10 -30 5 -44 -8 -63 -63 l-14 -39 -12 28 c-8 15 -24 30 -37 33 -13
4 -30 20 -39 39 -18 38 -40 51 -60 35 -9 -9 -15 -6 -24 9 -6 12 -23 24 -38 27
-15 4 -38 15 -51 26 -13 10 -30 18 -38 18 -8 0 -23 8 -34 18 -24 23 -16 56 12
47 16 -5 19 -1 19 22 0 43 30 68 47 39z m897 -328 c-7 -11 -7 -11 -24 22 -13
25 -13 25 8 6 12 -10 19 -23 16 -28z"/>
</g>
</svg>
